<svg width="15" height="21" viewBox="0 0 15 21" fill="none" xmlns="http://www.w3.org/2000/svg">
<path d="M11.0887 1.79991L12.0489 1.5205L11.7683 0.556355L10.8053 0.840896L11.0887 1.79991ZM1.04955 3.72352C0.519899 3.88002 0.217403 4.43625 0.373903 4.9659C0.530402 5.49555 1.08663 5.79804 1.61628 5.64154L1.04955 3.72352ZM12.7241 10.9992C12.8784 11.5295 13.4334 11.8343 13.9637 11.68C14.494 11.5257 14.7988 10.9707 14.6445 10.4404L12.7241 10.9992ZM2.93116 20.7661L11.9871 2.23905L10.1903 1.36077L1.13432 19.8878L2.93116 20.7661ZM10.8053 0.840896L1.04955 3.72352L1.61628 5.64154L11.3721 2.75892L10.8053 0.840896ZM10.1285 2.07931L12.7241 10.9992L14.6445 10.4404L12.0489 1.5205L10.1285 2.07931Z" fill="#0E1D21"/>
</svg>
