<svg width="159" height="300" viewBox="0 0 159 300" fill="none" xmlns="http://www.w3.org/2000/svg">
<path d="M158.042 280.427C156.576 279.966 155.095 279.536 153.614 279.123C149.886 274.095 150.89 268.542 148.931 262.559C147.768 259.027 143.674 252.679 139.135 253.936C134.611 255.177 136.825 262.718 137.797 265.519C139.358 269.974 143.547 274.222 147.513 277.627C144.073 276.831 140.6 276.1 137.144 275.336C135.2 273.045 134.053 269.862 132.811 267.253C131.027 263.482 129.434 259.6 127.411 255.956C125.468 252.44 122.155 248.096 118.364 252.758C113.282 258.979 122.059 268.144 129.275 273.49C126.917 272.886 124.576 272.217 122.25 271.454C120.96 271.024 119.702 270.578 118.427 270.133C112.725 265.917 114.334 257.85 112.709 251.469C111.833 248.064 108.87 243.609 104.745 245.487C100.89 247.237 103.455 255.415 104.394 258.009C105.207 260.252 106.385 263.355 108.074 265.917C105.732 264.85 103.439 263.705 101.177 262.512C97.1946 258.327 98.0229 248.494 97.099 243.498C96.43 239.87 94.6938 234.731 89.963 237.293C84.834 240.077 86.7773 246.553 88.5453 250.865C89.1665 252.376 90.0267 254.524 91.1098 256.672C90.5683 256.322 90.0108 255.988 89.4692 255.638C86.618 253.761 83.8305 251.803 81.0748 249.783C78.0484 242.4 84.2287 231.278 78.2873 224.341C77.8094 223.784 76.8059 223.816 76.3121 224.341C71.7088 229.417 70.6097 236.943 72.7282 243.371C70.5938 241.636 68.5231 239.838 66.4683 238.009C65.3373 232.36 69.9407 205.264 59.3163 209.639C55.2067 211.326 55.9076 218.088 56.4332 221.477C56.7518 223.53 57.2456 227.078 58.3128 230.165C55.5094 227.285 52.8652 224.262 50.3007 221.175C46.446 212.185 57.8509 199.377 47.4017 192.901C46.7008 192.471 45.8248 192.774 45.4106 193.426C42.3045 198.183 41.0462 204.134 41.7789 209.83C39.7082 206.775 37.749 203.625 35.9172 200.427C38.0516 192.726 47.1787 175.033 35.3915 175.351C30.9793 175.478 29.1794 181.222 29.0997 187.046C28.3351 185.343 27.6183 183.641 26.9334 181.906C27.8732 176.035 30.1351 170.657 31.7757 164.929C32.6199 162.034 34.5314 156.608 30.0873 155.987C25.1335 155.303 22.9035 161.254 22.2345 165.12C22.1548 165.63 22.0274 166.314 21.9 167.093C20.9283 163.609 20.1 160.077 19.4151 156.513C23.7158 150.403 35.4234 135.812 28.1918 132.328C23.5566 130.1 20.0523 135.637 18.6665 139.17C18.332 140.045 17.886 141.19 17.44 142.495C17.1373 138.931 16.994 135.335 16.978 131.739C17.0577 131.66 17.1214 131.548 17.1214 131.389C16.994 124.85 36.2676 124.404 29.3227 115.383C26.6467 111.898 22.9672 112.885 20.1956 115.796C19.4151 116.624 18.4435 117.722 17.5196 118.963C17.7904 115.844 18.2045 112.757 18.6824 109.702C19.9726 108.811 21.1991 107.936 22.8398 107.379C25.0857 106.616 27.4272 106.075 29.5935 105.104C32.6837 103.72 35.6464 100.14 34.2287 96.4963C32.2217 91.357 24.0822 97.8646 20.0363 102.256C20.9761 97.801 22.1548 93.4414 23.4928 89.1613C27.2201 88.1271 30.8519 88.0316 34.8659 87.7611C37.5897 87.5861 41.6515 86.886 41.5081 83.1629C41.3648 79.2169 37.0162 77.6099 33.6712 77.1326C31.2342 76.7826 29.0201 77.7054 27.0609 79.1374C28.0166 76.7507 29.036 74.3959 30.1032 72.0729C31.9509 70.6091 33.5119 68.8748 36.2039 68.652C38.6091 68.4452 41.0621 68.5407 43.4514 68.2065C45.7133 67.8883 49.9025 65.1516 48.0388 62.3036C45.7292 58.7872 39.3259 59.8373 34.9614 62.4467C37.2552 58.3099 39.756 54.2844 42.416 50.3862C48.5804 51.3091 61.4348 55.8596 60.7817 47.4268C60.3039 41.2533 51.1927 43.4649 46.1593 45.1356C48.7716 41.6193 51.5431 38.1984 54.4422 34.9048C56.1943 35.4617 57.9624 36.305 59.619 36.7982C61.7693 37.4506 64.3338 38.2302 66.6116 38.0393C69.5425 37.7847 72.0751 34.5548 70.4664 31.5953C68.762 28.4609 63.9197 29.1132 61.0207 29.4951C60.4473 29.5746 59.826 29.6542 59.1889 29.7337C61.18 27.6494 63.2348 25.6446 65.3373 23.6717C66.0382 23.1943 66.7072 22.6215 67.3443 22.0169C73.0786 24.1331 87.9719 29.4951 86.2516 21.3487C85.5508 18.0551 79.3067 17.705 76.8059 17.5459C75.9936 17.4982 74.2574 17.355 72.4415 17.3868C72.4893 17.3232 72.5371 17.2595 72.5849 17.1959C72.776 17.0368 72.9671 16.8936 73.1583 16.7345C73.0946 16.7345 73.0149 16.7186 72.9512 16.7026C73.0786 16.5435 73.1901 16.3685 73.3176 16.2253C74.0503 15.3025 74.7989 14.3319 75.4202 13.2818C75.4679 13.25 75.5157 13.234 75.5635 13.2022C75.8184 13.0749 75.8821 12.7726 75.8184 12.5181C75.9458 12.2476 76.0892 11.993 76.1847 11.7225C76.2644 11.5157 76.1369 11.3565 75.9617 11.277C75.9299 11.2293 75.898 11.1815 75.8502 11.1338C75.8502 10.7519 75.4998 10.3382 75.1016 10.4974C73.0627 11.3088 71.2628 12.5499 69.5425 13.9023C69.4628 13.966 69.3673 14.0455 69.2876 14.1092C69.9248 12.4862 70.4345 10.7997 70.6097 9.17674C70.3071 8.55622 70.2911 7.84022 70.6734 7.2356C70.5141 4.57847 69.2558 2.19182 66.1019 0.600718C65.5922 0.346142 64.8754 0.441608 64.5887 0.998493C61.5941 6.9492 64.5887 11.9612 65.5444 17.7846C65.4807 17.896 65.417 17.9914 65.3533 18.1028C62.0242 21.0463 58.8066 24.1013 55.7324 27.2994C55.7483 25.8196 55.6049 24.324 55.5412 23.4012C55.3979 21.3168 55.3501 16.7504 53.0086 15.6684C50.1574 14.3478 48.1822 18.0551 47.8477 20.3463C47.2902 24.1808 49.3768 28.6677 51.0016 32.4227C48.1026 35.7004 45.331 39.0894 42.7187 42.5898C42.7187 41.3647 42.6709 40.1236 42.5594 38.8826C42.3205 35.9072 42.2727 31.4362 39.8834 29.2405C37.2233 26.7902 34.2128 31.3567 33.9261 33.6001C33.2889 38.6121 37.5737 42.3512 39.7719 46.6312C35.6942 52.4228 32.0465 58.4849 28.7971 64.7538C28.8926 62.6059 28.6059 60.3783 28.3192 58.469C27.8891 55.605 27.2201 50.418 24.0344 49.1292C20.4027 47.6813 17.8223 52.757 17.9337 55.6368C18.1249 61.1739 24.6238 64.1174 25.4521 69.368C25.5317 69.8454 25.8184 70.0681 26.1529 70.1477C24.2893 74.1254 22.6008 78.1827 21.1036 82.3196C20.6575 76.1938 16.8984 69.6703 11.2756 67.5064C10.7022 67.2837 9.95352 67.7451 9.8261 68.3338C9.07744 72.0411 9.96944 75.2233 12.295 78.1827C13.4897 79.7102 14.8595 81.1103 16.086 82.606C17.4718 84.3244 18.109 86.0746 19.1762 87.9521C17.87 92.0412 16.755 96.194 15.8152 100.41C14.1746 95.0643 10.8137 90.4183 4.90414 90.4183C4.37849 90.4183 3.91656 90.7842 3.77321 91.2775C2.69006 94.9052 4.09178 98.0555 6.64037 100.713C8.2173 102.367 10.0172 103.736 11.6738 105.295C12.6454 106.202 13.4419 107.252 14.2861 108.239C13.5534 112.63 13.0437 117.085 12.741 121.572C12.2472 120.601 11.7694 119.695 11.3552 118.915C10.0969 116.544 7.2775 110.768 3.70949 111.644C-0.447876 112.646 -0.272659 118.358 1.79807 121.047C4.6015 124.706 9.81017 126.504 12.4543 130.259C12.4543 134.858 12.6614 139.488 13.1233 144.134C13.2826 145.725 13.5056 147.316 13.7127 148.891C12.9322 147.777 12.1357 146.695 11.2915 145.629C9.49158 143.354 5.95543 138.024 2.43521 138.469C-1.70624 138.995 0.348557 145.168 1.94142 147.046C5.62093 151.389 10.734 154.094 15.1303 157.61C16.1816 162.877 17.5674 168.08 19.208 173.203C15.9108 168.875 11.7694 165.2 6.21028 164.564C5.78021 164.516 5.28642 164.914 5.20679 165.327C3.1042 175.749 14.6684 177.579 22.0593 181.366C23.3654 184.755 24.799 188.096 26.3281 191.389C24.4964 189.846 22.5371 188.525 20.4664 187.698C18.1568 186.775 10.4951 184.548 9.07744 187.969C7.53236 191.692 13.41 196.29 16.2772 197.483C19.3673 198.772 22.6008 199.297 25.8662 199.918C27.7299 200.284 29.5776 200.936 31.4412 201.334C34.0854 206.059 36.9844 210.658 40.0905 215.113C38.864 214.667 37.7012 214.285 36.7614 213.951C33.5597 212.806 27.8095 210.212 24.3848 211.915C21.231 213.474 24.2733 217.722 26.2803 218.836C32.0306 222.066 39.294 220.427 45.3628 222.941C45.554 223.02 45.7451 223.005 45.9203 222.957C48.6601 226.425 51.5591 229.799 54.5696 233.044C52.467 232.424 50.3007 231.947 48.2937 231.517C45.1239 230.833 40.0427 229.353 36.9844 231.071C33.719 232.917 39.0073 236.672 40.3294 237.547C43.6744 239.775 47.4017 240.714 51.3998 240.904C54.92 241.064 58.9818 241.605 62.502 241.032C64.6046 243.021 66.7868 244.914 68.985 246.792C66.5161 246.091 63.9993 245.805 61.5622 246.314C58.3606 246.982 51.5591 249.369 52.7856 253.856C53.8847 257.85 59.842 259.313 63.3463 258.47C68.1726 257.325 72.5849 253.936 77.5068 253.585C81.7757 256.752 86.2038 259.695 90.7435 262.416C87.956 262.639 85.1207 263.291 82.6199 263.975C79.8483 264.723 74.3689 266.044 73.9706 269.624C73.5406 273.506 79.243 275.161 82.158 274.477C88.1153 273.076 92.4001 268.224 98.2618 266.617C102.531 268.86 106.911 270.913 111.371 272.742L111.212 272.838C108.361 273.283 105.43 274.238 103.104 274.906C99.5998 275.909 92.9257 277.341 91.1736 281.08C89.1028 285.487 96.7964 286.203 99.2653 285.423C102.355 284.437 104.761 281.812 107.054 279.664C109.667 277.197 111.929 275.447 114.971 274.19C118.969 275.718 123.047 277.054 127.156 278.232C119.399 278.47 106.72 281.732 109.746 288.287C111.881 292.902 118.077 293.236 121.613 290.292C123.955 288.335 125.691 285.837 127.73 283.594C128.733 282.48 129.816 281.207 131.154 280.475C131.776 280.125 132.429 279.982 133.082 279.791C137.924 280.952 142.846 281.828 147.816 282.48C144.55 283.387 141.715 286.426 139.963 289.051C138.402 291.39 135.535 296.672 138.975 298.836C142.623 301.143 145.14 297.357 146.701 294.477C148.15 291.804 149.425 289.051 150.858 286.378C151.479 285.248 152.339 284.166 153.072 283.053C154.569 283.18 156.051 283.323 157.548 283.403C159.3 283.498 159.507 280.952 157.946 280.459L158.042 280.427Z" fill="url(#paint0_linear_3_2190)"/>
<defs>
<linearGradient id="paint0_linear_3_2190" x1="210.984" y1="352.48" x2="-124.922" y2="0.466757" gradientUnits="userSpaceOnUse">
<stop stop-color="#E47D02"/>
<stop offset="1" stop-color="#966012"/>
</linearGradient>
</defs>
</svg>
