<svg width="411" height="539" viewBox="0 0 411 539" fill="none" xmlns="http://www.w3.org/2000/svg">
<path d="M3.58734 491.968C6.69074 491.895 9.80722 491.892 12.9148 491.92C22.9705 484.251 24.1377 472.91 31.297 462.396C35.5357 456.192 47.0433 446.165 55.1501 451.152C63.2349 456.099 54.7062 469.496 51.2491 474.387C45.7198 482.159 35.2048 488.055 25.5958 492.439C32.7206 492.825 39.8716 493.353 47.0094 493.809C52.0669 490.452 56.0783 484.918 59.9538 480.55C65.5322 474.231 70.8021 467.589 76.7729 461.651C82.5177 455.916 91.3856 449.343 96.129 460.519C102.502 475.446 80.3243 488.312 63.3188 494.641C68.2341 494.79 73.154 494.806 78.0967 494.628C80.8421 494.518 83.5346 494.359 86.2581 494.21C99.6925 489.224 101.095 472.663 107.828 461.19C111.439 455.072 119.689 448.086 126.644 454.045C133.145 459.605 123.579 474.041 120.299 478.548C117.464 482.447 113.435 487.808 108.721 491.833C113.864 491.078 118.959 490.141 124.019 489.093C134.096 483.205 138.005 463.653 142.601 454.474C145.935 447.807 152.188 438.805 159.934 446.432C168.328 454.714 160.923 466.194 155.072 473.572C153.018 476.158 150.143 479.844 146.836 483.406C148.083 483.031 149.353 482.695 150.6 482.319C157.188 480.274 163.697 478.039 170.18 475.663C180.196 463.03 174.439 437.974 189.863 427.842C191.103 427.029 193.033 427.654 193.697 428.95C199.785 441.385 197.697 456.61 189.978 467.899C195.094 465.73 200.123 463.401 205.138 461.002C210.502 450.673 216.767 395.493 234.935 409.947C241.966 415.526 236.812 428.259 233.891 434.543C232.121 438.348 229.172 444.958 225.369 450.351C232.426 446.334 239.255 441.949 245.964 437.396C258.49 422.109 243.537 390.848 267.453 384.14C269.054 383.699 270.585 384.778 271.023 386.276C274.384 397.253 273.488 409.51 268.87 420.156C274.603 415.388 280.174 410.372 285.524 405.191C285.701 389.046 277.91 349.582 300.611 356.812C309.105 359.534 309.376 371.693 306.264 383.042C308.703 380.166 311.049 377.264 313.352 374.281C314.821 362.358 313.448 350.65 313.477 338.611C313.462 332.516 312.796 320.912 321.77 322.201C331.77 323.652 332.76 336.454 331.89 344.334C331.759 345.367 331.622 346.767 331.432 348.351C335.273 342.133 338.863 335.741 342.192 329.207C337.271 314.935 322.731 280.045 338.723 277.338C348.97 275.615 352.666 288.329 353.374 295.963C353.533 297.849 353.756 300.323 353.889 303.106C356.476 296.357 358.772 289.458 360.82 282.487C360.71 282.288 360.649 282.036 360.738 281.727C364.654 269.105 327.492 257.427 346.034 243.812C353.183 238.549 359.772 242.528 363.518 249.735C364.569 251.779 365.839 254.455 366.936 257.382C368.16 251.177 369.088 244.953 369.874 238.755C367.87 236.302 365.98 233.915 363.108 231.914C359.177 229.171 354.935 226.807 351.274 223.708C346.053 219.288 342.31 210.676 347.106 204.399C353.885 195.549 366.034 212.747 371.424 223.541C372.099 214.366 372.256 205.243 372.06 196.184C365.405 192.086 358.409 189.863 350.77 187.086C345.581 185.218 338.089 181.581 340.456 174.434C342.948 166.855 352.29 166.175 359.051 167.125C363.978 167.813 367.758 170.846 370.758 174.725C370.242 169.556 369.584 164.413 368.816 159.305C366.05 155.427 363.993 151.185 358.893 149.243C354.34 147.492 349.525 146.301 345.074 144.312C340.862 142.425 334.266 134.763 339.481 130.28C345.937 124.75 357.778 130.381 364.785 137.895C362.654 128.578 360.058 119.361 357.081 110.302C344.598 108.635 317.093 110.257 323.092 94.2542C327.483 82.539 343.928 91.9434 352.761 98.01C349.663 89.719 346.202 81.5239 342.422 73.5044C338.709 73.6024 334.804 74.2474 331.312 74.2755C326.772 74.3355 321.356 74.4101 317.042 72.7617C311.496 70.6233 308.392 62.9329 313.175 58.0908C318.241 52.9627 327.275 56.9455 332.688 59.313C333.756 59.7892 334.917 60.2921 336.11 60.8039C333.414 55.641 330.55 50.5968 327.576 45.5876C326.483 44.2678 325.506 42.7807 324.608 41.2496C312.29 42.1404 280.373 44.1934 288.282 29.3455C291.49 23.3455 303.807 26.169 308.751 27.263C310.354 27.6261 313.805 28.3222 317.312 29.4026C317.255 29.2523 317.197 29.102 317.14 28.9516C316.859 28.5355 316.568 28.1503 316.286 27.7342C316.41 27.77 316.573 27.7838 316.706 27.7886C316.548 27.4083 316.43 27.006 316.263 26.6566C315.358 24.4542 314.449 22.1502 313.833 19.7633C313.758 19.6748 313.674 19.6171 313.599 19.5285C313.176 19.1384 313.222 18.5159 313.488 18.0575C313.393 17.4609 313.257 16.8864 313.223 16.3077C313.185 15.8615 313.521 15.6242 313.906 15.568C313.995 15.4933 314.083 15.4185 314.203 15.3526C314.417 14.6114 315.329 14.005 316.013 14.5372C319.515 17.2561 322.313 20.6749 324.894 24.2652C325.013 24.4334 325.153 24.6415 325.272 24.8097C324.946 21.302 324.903 17.7423 325.473 14.4937C326.409 13.459 326.841 12.0781 326.438 10.69C328.238 5.62163 332.02 1.69485 339.034 0.375684C340.167 0.167479 341.504 0.754906 341.748 1.99672C344.223 15.2276 335.598 23.2763 330.476 34.044C330.538 34.296 330.608 34.517 330.669 34.769C335.48 42.3502 340.011 50.0852 344.185 58.0177C344.984 55.1364 346.101 52.3137 346.743 50.5581C348.19 46.5926 350.845 37.7555 355.997 36.9689C362.272 36.005 364.026 44.3092 363.39 48.9443C362.321 56.7003 355.754 64.2392 350.493 70.6166C354.282 78.6052 357.761 86.7385 360.868 94.9986C361.555 92.6205 362.344 90.2383 363.257 87.8918C365.39 82.2504 367.99 73.5986 373.86 70.6769C380.398 67.4129 383.68 77.9658 382.978 82.4814C381.403 92.5675 370.988 97.4217 364.32 104.497C368.987 118.026 372.666 131.84 375.457 145.831C376.476 141.608 378.283 137.445 379.91 133.9C382.352 128.582 386.56 118.889 393.467 118.174C401.329 117.401 403.49 128.701 401.658 134.228C398.181 144.869 383.915 146.937 379.361 156.664C378.939 157.546 378.257 157.818 377.563 157.784C378.949 166.551 379.951 175.374 380.536 184.244C384.839 172.604 395.795 162.05 407.924 161.004C409.162 160.893 410.356 162.209 410.273 163.423C409.646 171.039 406.13 176.716 399.955 181.156C396.78 183.45 393.335 185.4 390.115 187.615C386.461 190.173 384.243 193.213 381.118 196.258C381.359 204.929 381.194 213.615 380.653 222.327C386.836 212.87 395.967 205.737 407.438 209.052C408.458 209.347 409.149 210.317 409.151 211.354C409.218 219.004 404.73 224.333 398.292 228.061C394.303 230.388 390.042 232.034 385.951 234.132C383.556 235.347 381.421 236.939 379.229 238.38C378.188 247.315 376.678 256.249 374.748 265.128C376.251 263.521 377.688 262.029 378.929 260.748C382.701 256.852 391.414 247.222 397.849 250.923C405.357 255.201 401.812 266.19 396.284 270.248C388.789 275.779 377.67 276.347 370.431 282.152C367.852 291.078 364.852 299.949 361.349 308.708C360.147 311.707 358.822 314.671 357.536 317.612C359.676 315.888 361.829 314.235 364.066 312.639C368.836 309.232 378.69 300.87 385.273 303.709C393.018 307.052 385.566 317.883 381.421 320.633C371.842 327.001 360.399 329.383 349.893 333.742C344.898 343.375 339.289 352.697 333.23 361.721C342.058 355.17 352.159 350.359 363.307 352.243C364.168 352.391 364.904 353.44 364.826 354.288C363.061 375.697 339.587 372.761 323.117 375.966C318.68 381.811 314.023 387.493 309.207 393.028C313.628 391.06 318.172 389.596 322.656 389.151C327.657 388.656 343.779 388.63 344.611 396.066C345.522 404.16 331.533 409.788 325.298 410.496C318.577 411.264 312.006 410.469 305.319 409.842C301.496 409.507 297.544 409.736 293.703 409.463C285.919 417.152 277.713 424.452 269.184 431.357C271.815 431.18 274.286 431.091 276.298 430.97C283.155 430.542 295.772 428.734 301.464 433.96C306.712 438.756 298.423 445.295 293.902 446.331C280.928 449.375 267.749 442.119 254.558 443.594C254.143 443.642 253.781 443.504 253.467 443.313C246.203 448.508 238.684 453.43 231.019 458.041C235.448 458.016 239.921 458.305 244.058 458.597C250.595 459.047 261.288 459.026 266.26 464.077C271.563 469.491 259.192 473.813 256.135 474.77C248.392 477.218 240.63 476.949 232.762 475.077C225.84 473.411 217.652 472.182 211.14 469.095C205.943 471.776 200.645 474.228 195.325 476.639C200.51 476.665 205.556 477.521 210.001 479.876C215.841 482.97 227.705 491.418 222.807 499.439C218.433 506.575 206.048 506.074 199.719 502.472C190.993 497.54 184.33 488.486 174.972 485.046C164.91 488.797 154.663 492.027 144.324 494.761C149.61 496.757 154.748 499.614 159.218 502.345C164.179 505.352 174.074 510.989 172.839 518.161C171.496 525.939 159.498 525.952 154.224 522.988C143.446 516.928 137.851 505.105 127.374 498.697C117.829 500.657 108.175 502.184 98.4913 503.233L98.747 503.508C104.032 505.972 109.185 509.47 113.324 512.071C119.564 515.983 131.716 522.507 133.019 530.748C134.566 540.464 119.231 537.538 114.876 534.64C109.431 530.991 106.235 524.546 102.988 519.09C99.3004 512.837 95.8918 508.171 90.6914 504.024C82.0738 504.746 73.4087 505.053 64.7711 505.033C79.6948 509.848 102.476 523.292 92.9244 534.319C86.1926 542.078 73.9777 539.251 68.765 531.553C65.3178 526.441 63.349 520.618 60.65 515.12C59.3269 512.395 57.9385 509.316 55.7519 507.145C54.7424 506.117 53.5551 505.473 52.3945 504.736C42.3435 504.274 32.2986 503.211 22.2859 501.689C28.1155 505.282 31.9142 512.771 33.8425 518.85C35.5604 524.266 38.1624 536.128 30.27 538.398C21.8952 540.83 19.1344 532.068 17.72 525.602C16.4059 519.6 15.4766 513.542 14.1935 507.549C13.6214 505.008 12.5587 502.425 11.7613 499.852C8.78349 499.259 5.82769 498.706 2.87667 498.021C-0.577972 497.223 0.448246 492.165 3.75503 492.084L3.58734 491.968Z" fill="url(#paint0_linear_3_2017)"/>
<defs>
<linearGradient id="paint0_linear_3_2017" x1="32.4099" y1="535.926" x2="341.844" y2="-14.6858" gradientUnits="userSpaceOnUse">
<stop stop-color="#FF9500"/>
<stop offset="0.41" stop-color="#906528"/>
<stop offset="1" stop-color="#111111"/>
</linearGradient>
</defs>
</svg>
