<svg width="159" height="300" viewBox="0 0 159 300" fill="none" xmlns="http://www.w3.org/2000/svg">
<path d="M0.958099 280.427C2.42353 279.966 3.90489 279.536 5.38626 279.123C9.11355 274.095 8.11005 268.542 10.0693 262.559C11.2321 259.027 15.3257 252.679 19.8654 253.936C24.3891 255.177 22.175 262.718 21.2034 265.519C19.6424 269.974 15.4531 274.222 11.4869 277.627C14.9275 276.831 18.3999 276.1 21.8564 275.336C23.7997 273.045 24.9466 269.862 26.189 267.253C27.973 263.482 29.5659 259.6 31.5888 255.956C33.5321 252.44 36.8453 248.096 40.6363 252.758C45.7175 258.979 36.9409 268.144 29.7252 273.49C32.0826 272.886 34.4241 272.217 36.7497 271.454C38.0399 271.024 39.2983 270.578 40.5726 270.133C46.275 265.917 44.6662 257.85 46.291 251.469C47.167 248.064 50.1297 243.609 54.2553 245.487C58.11 247.237 55.5455 255.415 54.6057 258.009C53.7933 260.252 52.6146 263.355 50.9262 265.917C53.2677 264.85 55.5614 263.705 57.8233 262.512C61.8054 258.327 60.9771 248.494 61.901 243.498C62.57 239.87 64.3062 234.731 69.037 237.293C74.166 240.077 72.2227 246.553 70.4547 250.865C69.8335 252.376 68.9733 254.524 67.8902 256.672C68.4317 256.322 68.9892 255.988 69.5308 255.638C72.382 253.761 75.1695 251.803 77.9252 249.783C80.9516 242.4 74.7713 231.278 80.7127 224.341C81.1906 223.784 82.1941 223.816 82.6879 224.341C87.2912 229.417 88.3903 236.943 86.2718 243.371C88.4062 241.636 90.4769 239.838 92.5317 238.009C93.6627 232.36 89.0593 205.264 99.6837 209.639C103.793 211.326 103.092 218.088 102.567 221.477C102.248 223.53 101.754 227.078 100.687 230.165C103.491 227.285 106.135 224.262 108.699 221.175C112.554 212.185 101.149 199.377 111.598 192.901C112.299 192.471 113.175 192.774 113.589 193.426C116.695 198.183 117.954 204.134 117.221 209.83C119.292 206.775 121.251 203.625 123.083 200.427C120.948 192.726 111.821 175.033 123.608 175.351C128.021 175.478 129.821 181.222 129.9 187.046C130.665 185.343 131.382 183.641 132.067 181.906C131.127 176.035 128.865 170.657 127.224 164.929C126.38 162.034 124.469 156.608 128.913 155.987C133.867 155.303 136.097 161.254 136.766 165.12C136.845 165.63 136.973 166.314 137.1 167.093C138.072 163.609 138.9 160.077 139.585 156.513C135.284 150.403 123.577 135.812 130.808 132.328C135.443 130.1 138.948 135.637 140.334 139.17C140.668 140.045 141.114 141.19 141.56 142.495C141.863 138.931 142.006 135.335 142.022 131.739C141.942 131.66 141.879 131.548 141.879 131.389C142.006 124.85 122.732 124.404 129.677 115.383C132.353 111.898 136.033 112.885 138.804 115.796C139.585 116.624 140.557 117.722 141.48 118.963C141.21 115.844 140.795 112.757 140.318 109.702C139.027 108.811 137.801 107.936 136.16 107.379C133.914 106.616 131.573 106.075 129.406 105.104C126.316 103.72 123.354 100.14 124.771 96.4963C126.778 91.357 134.918 97.8646 138.964 102.256C138.024 97.801 136.845 93.4414 135.507 89.1613C131.78 88.1271 128.148 88.0316 124.134 87.7611C121.41 87.5861 117.349 86.886 117.492 83.1629C117.635 79.2169 121.984 77.6099 125.329 77.1326C127.766 76.7826 129.98 77.7054 131.939 79.1374C130.983 76.7507 129.964 74.3959 128.897 72.0729C127.049 70.6091 125.488 68.8748 122.796 68.652C120.391 68.4452 117.938 68.5407 115.549 68.2065C113.287 67.8883 109.098 65.1516 110.961 62.3036C113.271 58.7872 119.674 59.8373 124.039 62.4467C121.745 58.3099 119.244 54.2844 116.584 50.3862C110.42 51.3091 97.5652 55.8596 98.2183 47.4268C98.6961 41.2533 107.807 43.4649 112.841 45.1356C110.228 41.6193 107.457 38.1984 104.558 34.9048C102.806 35.4617 101.038 36.305 99.381 36.7982C97.2307 37.4506 94.6662 38.2302 92.3884 38.0393C89.4575 37.7847 86.9249 34.5548 88.5336 31.5953C90.238 28.4609 95.0803 29.1132 97.9793 29.4951C98.5527 29.5746 99.174 29.6542 99.8111 29.7337C97.82 27.6494 95.7652 25.6446 93.6627 23.6717C92.9618 23.1943 92.2928 22.6215 91.6557 22.0169C85.9214 24.1331 71.0281 29.4951 72.7484 21.3487C73.4492 18.0551 79.6933 17.705 82.1941 17.5459C83.0064 17.4982 84.7426 17.355 86.5585 17.3868C86.5107 17.3232 86.4629 17.2595 86.4151 17.1959C86.224 17.0368 86.0329 16.8936 85.8417 16.7345C85.9054 16.7345 85.9851 16.7186 86.0488 16.7026C85.9214 16.5435 85.8099 16.3685 85.6824 16.2253C84.9497 15.3025 84.2011 14.3319 83.5798 13.2818C83.5321 13.25 83.4843 13.234 83.4365 13.2022C83.1816 13.0749 83.1179 12.7726 83.1816 12.5181C83.0542 12.2476 82.9108 11.993 82.8153 11.7225C82.7356 11.5157 82.8631 11.3565 83.0383 11.277C83.0701 11.2293 83.102 11.1815 83.1498 11.1338C83.1498 10.7519 83.5002 10.3382 83.8984 10.4974C85.9373 11.3088 87.7372 12.5499 89.4575 13.9023C89.5372 13.966 89.6327 14.0455 89.7124 14.1092C89.0752 12.4862 88.5655 10.7997 88.3903 9.17674C88.6929 8.55622 88.7089 7.84022 88.3266 7.2356C88.4859 4.57847 89.7442 2.19182 92.8981 0.600718C93.4078 0.346142 94.1246 0.441608 94.4113 0.998493C97.4059 6.9492 94.4113 11.9612 93.4556 17.7846C93.5193 17.896 93.583 17.9914 93.6467 18.1028C96.9758 21.0463 100.193 24.1013 103.268 27.2994C103.252 25.8196 103.395 24.324 103.459 23.4012C103.602 21.3168 103.65 16.7504 105.991 15.6684C108.843 14.3478 110.818 18.0551 111.152 20.3463C111.71 24.1808 109.623 28.6677 107.998 32.4227C110.897 35.7004 113.669 39.0894 116.281 42.5898C116.281 41.3647 116.329 40.1236 116.441 38.8826C116.68 35.9072 116.727 31.4362 119.117 29.2405C121.777 26.7902 124.787 31.3567 125.074 33.6001C125.711 38.6121 121.426 42.3512 119.228 46.6312C123.306 52.4228 126.953 58.4849 130.203 64.7538C130.107 62.6059 130.394 60.3783 130.681 58.469C131.111 55.605 131.78 50.418 134.966 49.1292C138.597 47.6813 141.178 52.757 141.066 55.6368C140.875 61.1739 134.376 64.1174 133.548 69.368C133.468 69.8454 133.182 70.0681 132.847 70.1477C134.711 74.1254 136.399 78.1827 137.896 82.3196C138.342 76.1938 142.102 69.6703 147.724 67.5064C148.298 67.2837 149.046 67.7451 149.174 68.3338C149.923 72.0411 149.031 75.2233 146.705 78.1827C145.51 79.7102 144.14 81.1103 142.914 82.606C141.528 84.3244 140.891 86.0746 139.824 87.9521C141.13 92.0412 142.245 96.194 143.185 100.41C144.825 95.0643 148.186 90.4183 154.096 90.4183C154.622 90.4183 155.083 90.7842 155.227 91.2775C156.31 94.9052 154.908 98.0555 152.36 100.713C150.783 102.367 148.983 103.736 147.326 105.295C146.355 106.202 145.558 107.252 144.714 108.239C145.447 112.63 145.956 117.085 146.259 121.572C146.753 120.601 147.231 119.695 147.645 118.915C148.903 116.544 151.723 110.768 155.291 111.644C159.448 112.646 159.273 118.358 157.202 121.047C154.398 124.706 149.19 126.504 146.546 130.259C146.546 134.858 146.339 139.488 145.877 144.134C145.717 145.725 145.494 147.316 145.287 148.891C146.068 147.777 146.864 146.695 147.708 145.629C149.508 143.354 153.045 138.024 156.565 138.469C160.706 138.995 158.651 145.168 157.059 147.046C153.379 151.389 148.266 154.094 143.87 157.61C142.818 162.877 141.433 168.08 139.792 173.203C143.089 168.875 147.231 165.2 152.79 164.564C153.22 164.516 153.714 164.914 153.793 165.327C155.896 175.749 144.332 177.579 136.941 181.366C135.635 184.755 134.201 188.096 132.672 191.389C134.504 189.846 136.463 188.525 138.534 187.698C140.843 186.775 148.505 184.548 149.923 187.969C151.468 191.692 145.59 196.29 142.723 197.483C139.633 198.772 136.399 199.297 133.134 199.918C131.27 200.284 129.422 200.936 127.559 201.334C124.915 206.059 122.016 210.658 118.91 215.113C120.136 214.667 121.299 214.285 122.239 213.951C125.44 212.806 131.191 210.212 134.615 211.915C137.769 213.474 134.727 217.722 132.72 218.836C126.969 222.066 119.706 220.427 113.637 222.941C113.446 223.02 113.255 223.005 113.08 222.957C110.34 226.425 107.441 229.799 104.43 233.044C106.533 232.424 108.699 231.947 110.706 231.517C113.876 230.833 118.957 229.353 122.016 231.071C125.281 232.917 119.993 236.672 118.671 237.547C115.326 239.775 111.598 240.714 107.6 240.904C104.08 241.064 100.018 241.605 96.498 241.032C94.3954 243.021 92.2132 244.914 90.015 246.792C92.4839 246.091 95.0007 245.805 97.4378 246.314C100.639 246.982 107.441 249.369 106.214 253.856C105.115 257.85 99.158 259.313 95.6537 258.47C90.8274 257.325 86.4151 253.936 81.4932 253.585C77.2243 256.752 72.7962 259.695 68.2565 262.416C71.044 262.639 73.8793 263.291 76.3801 263.975C79.1517 264.723 84.6311 266.044 85.0294 269.624C85.4594 273.506 79.757 275.161 76.842 274.477C70.8847 273.076 66.5999 268.224 60.7382 266.617C56.4693 268.86 52.089 270.913 47.629 272.742L47.7882 272.838C50.6395 273.283 53.5703 274.238 55.8959 274.906C59.4002 275.909 66.0743 277.341 67.8264 281.08C69.8972 285.487 62.2036 286.203 59.7347 285.423C56.6446 284.437 54.2393 281.812 51.9456 279.664C49.3333 277.197 47.0715 275.447 44.0291 274.19C40.031 275.718 35.9533 277.054 31.8437 278.232C39.6009 278.47 52.2801 281.732 49.2537 288.287C47.1192 292.902 40.923 293.236 37.3869 290.292C35.0453 288.335 33.3091 285.837 31.2703 283.594C30.2668 282.48 29.1836 281.207 27.8456 280.475C27.2244 280.125 26.5713 279.982 25.9182 279.791C21.0759 280.952 16.154 281.828 11.1843 282.48C14.4496 283.387 17.2849 286.426 19.0371 289.051C20.5981 291.39 23.4652 296.672 20.0247 298.836C16.377 301.143 13.8603 297.357 12.2993 294.477C10.8498 291.804 9.57548 289.051 8.14191 286.378C7.52069 285.248 6.66054 284.166 5.92783 283.053C4.43054 283.18 2.94918 283.323 1.45189 283.403C-0.300262 283.498 -0.507334 280.952 1.05367 280.459L0.958099 280.427Z" fill="url(#paint0_linear_3_2189)"/>
<defs>
<linearGradient id="paint0_linear_3_2189" x1="-51.9837" y1="352.48" x2="283.922" y2="0.466757" gradientUnits="userSpaceOnUse">
<stop stop-color="#E47D02"/>
<stop offset="1" stop-color="#966012"/>
</linearGradient>
</defs>
</svg>
