<svg width="86" height="47" viewBox="0 0 86 47" fill="none" xmlns="http://www.w3.org/2000/svg">
<path d="M10.1181 42.443L10.412 42.8475L10.1181 42.443L5.26073 45.9721C4.86887 46.2568 4.34163 45.8738 4.49131 45.4131L6.34668 39.7029C6.54749 39.0849 6.3275 38.4078 5.80177 38.0258L0.944353 34.4967L0.65046 34.9012L0.944353 34.4967C0.552495 34.212 0.753884 33.5922 1.23824 33.5922H7.24234C7.89218 33.5922 8.46812 33.1738 8.66893 32.5557L10.5243 26.8455C10.674 26.3848 11.3257 26.3848 11.4754 26.8455L13.3307 32.5557C13.5315 33.1738 14.1075 33.5922 14.7573 33.5922H20.7614C21.2458 33.5922 21.4472 34.212 21.0553 34.4967L16.1979 38.0258C15.6721 38.4078 15.4522 39.0849 15.653 39.7029L17.5083 45.4131C17.658 45.8738 17.1308 46.2568 16.7389 45.9721L11.8815 42.443L11.5876 42.8475L11.8815 42.443C11.3558 42.0611 10.6439 42.0611 10.1181 42.443ZM42.5243 0.845493C42.674 0.384835 43.3257 0.384838 43.4754 0.84549L46.6778 10.7016C46.8786 11.3197 47.4546 11.7381 48.1044 11.7381H58.4677C58.9521 11.7381 59.1535 12.3579 58.7616 12.6426L50.3775 18.734C49.8518 19.116 49.6318 19.7931 49.8326 20.4111L53.035 30.2672C53.1847 30.7279 52.6575 31.1109 52.2656 30.8262L43.8815 24.7348C43.3558 24.3528 42.6439 24.3528 42.1181 24.7348L33.734 30.8262C33.3422 31.1109 32.8149 30.7279 32.9646 30.2672L36.167 20.4111C36.3679 19.793 36.1479 19.116 35.6221 18.734L27.238 12.6426C26.8462 12.3579 27.0475 11.7381 27.5319 11.7381H37.8953C38.5451 11.7381 39.121 11.3197 39.3218 10.7016L42.5243 0.845493ZM74.5243 26.8455C74.674 26.3848 75.3257 26.3848 75.4754 26.8455L77.3307 32.5557C77.5315 33.1738 78.1075 33.5922 78.7573 33.5922H84.7614C85.2458 33.5922 85.4472 34.212 85.0553 34.4967L80.1979 38.0258C79.6721 38.4078 79.4522 39.0849 79.653 39.7029L81.5083 45.4131C81.658 45.8738 81.1308 46.2568 80.7389 45.9721L75.8815 42.443C75.3558 42.0611 74.6439 42.0611 74.1181 42.443L69.2607 45.9721C68.8689 46.2568 68.3416 45.8738 68.4913 45.4131L70.3467 39.7029C70.5475 39.0849 70.3275 38.4078 69.8018 38.0258L64.9444 34.4967C64.5525 34.212 64.7539 33.5922 65.2382 33.5922H71.2423C71.8922 33.5922 72.4681 33.1738 72.6689 32.5557L74.5243 26.8455Z" fill="url(#paint0_linear_3_2544)" stroke="url(#paint1_linear_3_2544)"/>
<defs>
<linearGradient id="paint0_linear_3_2544" x1="0.236328" y1="23.2861" x2="85.7633" y2="23.2861" gradientUnits="userSpaceOnUse">
<stop stop-color="#FEC581"/>
<stop offset="1" stop-color="#966012"/>
</linearGradient>
<linearGradient id="paint1_linear_3_2544" x1="42.9998" y1="0" x2="42.9998" y2="46.5722" gradientUnits="userSpaceOnUse">
<stop stop-color="#FF9500"/>
<stop offset="1" stop-color="#FF9500" stop-opacity="0"/>
</linearGradient>
</defs>
</svg>
